<svg xmlns="http://www.w3.org/2000/svg" viewBox="0 0 96 64"><ellipse cx="48" cy="52" rx="44" ry="3.6" fill="#000" fill-opacity=".12"/><ellipse cx="48" cy="52" rx="40" ry="2.2" fill="#000" fill-opacity=".22"/><path d="M38,31 C50,31 50,19 62,19" stroke="var(--avm-dev-side, #262a30)" stroke-width="2.8" stroke-linecap="round" fill="none"/><path d="M38,31 C50,31 50,19 62,19" stroke="#fff" stroke-opacity=".14" stroke-width=".7" stroke-linecap="round" fill="none" transform="translate(0 -.6)"/><path d="M38,34 C50,34 50,45 62,45" stroke="var(--avm-dev-side, #262a30)" stroke-width="2.8" stroke-linecap="round" fill="none"/><path d="M38,34 C50,34 50,45 62,45" stroke="#fff" stroke-opacity=".14" stroke-width=".7" stroke-linecap="round" fill="none" transform="translate(0 -.6)"/><path d="M5,40 L5,27 L10,23 L40,23 L40,36 L35,40Z" fill="var(--avm-dev-side, #262a30)" stroke="var(--avm-dev-side, #262a30)" stroke-width="1.4" stroke-linejoin="round"/><path d="M6.6,27 L10,23 L40,23 L35,27Z" fill="var(--avm-dev-top, #4a5059)" stroke="var(--avm-dev-top, #4a5059)" stroke-width=".6" stroke-linejoin="round"/><path d="M8,27 L13,23 L26.5,23 L21.5,27Z" fill="#fff" fill-opacity=".05"/><path d="M11,23L39.4,23" stroke="#fff" stroke-width=".5" stroke-opacity=".22"/><path d="M35,40 L40,36 L40,34 L35,38Z" fill="#000" fill-opacity=".18"/><rect x="5" y="27" width="30" height="13" rx="4" fill="var(--avm-dev-body, #3a3f47)"/><path d="M5,33.5V31Q5,27 9,27H31Q35,27 35,31V33.5Z" fill="#fff" fill-opacity=".05"/><path d="M9,27.4L32.6,27.4" stroke="#fff" stroke-width=".7" stroke-opacity=".3"/><path d="M9,39.6L31,39.6" stroke="#000" stroke-width=".8" stroke-opacity=".3"/><rect x="8.1" y="29.2" width="9.4" height="8.6" rx=".8" fill="var(--avm-dev-metal, #b9c0c8)" fill-opacity=".85"/><path d="M9,30.1H16.6V35.1H14.3V36.9H11.3V35.1H9Z" fill="#000" fill-opacity=".7"/><path d="M10.3,31.3L15.3,31.3" stroke="var(--avm-dev-metal, #b9c0c8)" stroke-width=".9" stroke-dasharray=".5 .45" stroke-opacity=".9"/><circle class="led-glow" cx="23" cy="32.5" r="3.9" fill="var(--avm-led, #3ddc84)" fill-opacity=".28"/><circle cx="23" cy="32.5" r="2" fill="#000" fill-opacity=".45"/><circle class="led" cx="23" cy="32.5" r="1.5" fill="var(--avm-led, #3ddc84)"/><circle cx="22.5" cy="32" r=".6" fill="#fff" fill-opacity=".75"/><path d="M28,29.5L28,37.5" stroke="#000" stroke-width=".6" stroke-opacity=".3"/><path d="M30,29.5L30,37.5" stroke="#000" stroke-width=".6" stroke-opacity=".3"/><path d="M62,17.3 L68,15.2 L68,22.8 L62,20.7Z" fill="var(--avm-dev-side, #262a30)" stroke="var(--avm-dev-side, #262a30)" stroke-width=".8" stroke-linejoin="round"/><rect x="67.5" y="14" width="16.5" height="10" rx="1.6" fill="var(--avm-dev-metal, #b9c0c8)"/><rect x="68.5" y="14.7" width="14.5" height="2.2" rx=".8" fill="#fff" fill-opacity=".45"/><rect x="67.5" y="20.8" width="16.5" height="3.2" rx="1.4" fill="#000" fill-opacity=".22"/><path d="M69.1,14.4L69.1,23.6M70.4,14.4L70.4,23.6M71.7,14.4L71.7,23.6" stroke="#000" stroke-width=".5" stroke-opacity=".28"/><ellipse cx="84" cy="19" rx="2" ry="4.6" fill="#000" fill-opacity=".7"/><path d="M83.4,17L85.6,17" stroke="var(--avm-dev-metal, #b9c0c8)" stroke-width="1" stroke-linecap="round"/><path d="M83.4,21L85.6,21" stroke="var(--avm-dev-metal, #b9c0c8)" stroke-width="1" stroke-linecap="round"/><path d="M62,43.3 L68,41.2 L68,48.8 L62,46.7Z" fill="var(--avm-dev-side, #262a30)" stroke="var(--avm-dev-side, #262a30)" stroke-width=".8" stroke-linejoin="round"/><rect x="67.5" y="40" width="16.5" height="10" rx="1.6" fill="var(--avm-dev-metal, #b9c0c8)"/><rect x="68.5" y="40.7" width="14.5" height="2.2" rx=".8" fill="#fff" fill-opacity=".45"/><rect x="67.5" y="46.8" width="16.5" height="3.2" rx="1.4" fill="#000" fill-opacity=".22"/><path d="M69.1,40.4L69.1,49.6M70.4,40.4L70.4,49.6M71.7,40.4L71.7,49.6" stroke="#000" stroke-width=".5" stroke-opacity=".28"/><ellipse cx="84" cy="45" rx="2" ry="4.6" fill="#000" fill-opacity=".7"/><path d="M83.4,43L85.6,43" stroke="var(--avm-dev-metal, #b9c0c8)" stroke-width="1" stroke-linecap="round"/><path d="M83.4,47L85.6,47" stroke="var(--avm-dev-metal, #b9c0c8)" stroke-width="1" stroke-linecap="round"/></svg>
